# xmcd CD database file
#
# Track frame offsets:
#	183
#	20020
#	32958
#	46950
#	60105
#	72680
#	85515
#	97543
#	110405
#	125040
#	148018
#	162928
#	175983
#	190703
#
# Disc length: 2745 seconds
#
# Revision: 0
# Processed by: cddbd v1.5.1PL0 Copyright (c) Steve Scherf et al.
# Submitted via: CDex 1.51
#
DISCID=b70ab70e
DTITLE=stevie wonder - flash
DYEAR=1989
DGENRE=Pop
TTITLE0=superstition
TTITLE1=travelin' man
TTITLE2=yester-me yester-you yesterday
TTITLE3=if you really love me
TTITLE4=shoo-be-doo-be-doo-da-day
TTITLE5=for once in my life
TTITLE6=you met your match
TTITLE7=a place in the sun
TTITLE8=never had a dream come true
TTITLE9=heaven is 10 ziillion light years away
TTITLE10=we can work it out
TTITLE11=my cherie amour
TTITLE12=heaven help us all
TTITLE13=you havennt done nothin'
EXTD=YEAR: 1989
EXTT0=
EXTT1=
EXTT2=
EXTT3=
EXTT4=
EXTT5=
EXTT6=
EXTT7=
EXTT8=
EXTT9=
EXTT10=
EXTT11=
EXTT12=
EXTT13=
PLAYORDER=
